<svg width="25" height="25" viewBox="0 0 25 25" fill="none" xmlns="http://www.w3.org/2000/svg">
<path fill-rule="evenodd" clip-rule="evenodd" d="M20.3953 12.2179C20.3133 10.6438 19.7658 9.12948 18.8223 7.86687C18.5348 8.1765 18.2274 8.46712 17.9022 8.73687C16.9032 9.56672 15.7867 10.2441 14.5892 10.7469C14.7562 11.0969 14.9092 11.4359 15.0442 11.7559V11.7589C15.0823 11.8483 15.119 11.9383 15.1542 12.0289C16.6682 11.8589 18.2642 11.9209 19.8112 12.1299C20.0172 12.1579 20.2113 12.1879 20.3953 12.2179ZM11.0103 4.76787C11.9848 6.14105 12.8835 7.56651 13.7022 9.03787C14.9252 8.55587 15.9362 7.94787 16.7502 7.27087C17.0328 7.03801 17.2988 6.78573 17.5462 6.51587C16.1072 5.30559 14.2866 4.64321 12.4062 4.64587C11.9383 4.64555 11.4712 4.68604 11.0103 4.76687V4.76787ZM4.65925 10.6429C5.34048 10.6257 6.02089 10.5847 6.69925 10.5199C8.33889 10.3732 9.96453 10.0984 11.5612 9.69787C10.7268 8.24809 9.8258 6.83758 8.86125 5.47087C6.77657 6.50362 5.24324 8.3909 4.65925 10.6429ZM6.18925 17.6809C6.57725 17.1139 7.08725 16.4759 7.76425 15.7819C9.21825 14.2919 10.9342 13.1319 12.9202 12.4919L12.9823 12.4739C12.8173 12.1099 12.6622 11.7849 12.5062 11.4789C10.6702 12.0139 8.73625 12.3479 6.80925 12.5209C5.86925 12.6059 5.02625 12.6429 4.40625 12.6489C4.40448 14.4815 5.03454 16.2586 6.19025 17.6809H6.18925ZM15.4112 20.0609C15.0256 18.1161 14.4798 16.2066 13.7792 14.3519C11.7772 15.0789 10.1823 16.1419 8.94925 17.4099C8.45165 17.9123 8.01007 18.4672 7.63225 19.0649C9.01106 20.0937 10.6859 20.6483 12.4062 20.6459C13.4362 20.6474 14.4566 20.4494 15.4112 20.0629V20.0609ZM17.2842 18.9859C18.8455 17.7856 19.9091 16.0516 20.2712 14.1159C19.9312 14.0309 19.5002 13.9459 19.0262 13.8799C17.9724 13.7281 16.903 13.717 15.8462 13.8469C16.4413 15.5257 16.9217 17.243 17.2842 18.9869V18.9859ZM12.4062 22.6459C6.88325 22.6459 2.40625 18.1689 2.40625 12.6459C2.40625 7.12287 6.88325 2.64587 12.4062 2.64587C17.9292 2.64587 22.4062 7.12287 22.4062 12.6459C22.4062 18.1689 17.9292 22.6459 12.4062 22.6459Z" fill="#183443"/>
</svg>
