<svg width="25" height="25" viewBox="0 0 25 25" fill="none" xmlns="http://www.w3.org/2000/svg">
<g clip-path="url(#clip0_204_2179)">
<rect x="0.828125" y="0.645874" width="24" height="24" fill="#183443"/>
<path fill-rule="evenodd" clip-rule="evenodd" d="M13.2554 4.65661C11.6331 4.57864 10.4081 4.92542 9.58044 5.69695L9.51768 5.75687C8.71217 6.54488 8.30942 7.68102 8.30942 9.16531L8.30921 9.25531L5.55469 9.25542V12.0228L8.32201 12.0227L8.32208 14.7902H11.0895L11.0893 12.0227L13.8129 12.0228V9.25542L11.0893 9.25535L11.0894 9.08326C11.1203 7.8047 11.8811 7.22167 13.3719 7.33419V4.6629L13.2554 4.65661ZM19.2601 14.6584C19.2601 12.1133 17.5003 9.97913 15.131 9.40647L15.131 12.3596C15.9435 12.8143 16.4927 13.6832 16.4927 14.6804C16.4927 16.1481 15.3029 17.338 13.8351 17.338H13.7473L13.6776 17.3371C12.7642 17.3136 11.9655 16.8293 11.5053 16.108L8.51891 16.1079C9.15232 18.388 11.2434 20.0614 13.7253 20.0614H13.8571C16.8411 20.0614 19.2601 17.6424 19.2601 14.6584Z" fill="#45FF51"/>
</g>
<defs>
<clipPath id="clip0_204_2179">
<rect width="24" height="24" fill="white" transform="translate(0.828125 0.645874)"/>
</clipPath>
</defs>
</svg>
