<svg width="146" height="137" viewBox="0 0 146 137" fill="none" xmlns="http://www.w3.org/2000/svg">
<g clip-path="url(#clip0_277_3726)">
<rect y="0.87207" width="146" height="136" fill="#ECF7F4"/>
<circle cx="73" cy="68.8721" r="25" fill="#FFF7F0"/>
<rect opacity="0.01" x="56.3334" y="52.2053" width="33.3333" height="33.3333" fill="#D8D8D8"/>
<g filter="url(#filter0_d_277_3726)">
<path fill-rule="evenodd" clip-rule="evenodd" d="M56.3334 68.872C56.3334 55.0409 61.8526 52.2053 73 52.2053C84.1475 52.2053 89.6667 55.0409 89.6667 68.872C89.6667 82.703 84.1475 85.5387 73 85.5387C61.8526 85.5387 56.3334 82.703 56.3334 68.872Z" fill="url(#paint0_linear_277_3726)"/>
</g>
<path fill-rule="evenodd" clip-rule="evenodd" d="M64.8484 69.0625C64.0873 68.1875 64.3033 66.837 65.2995 66.243V66.243C65.9619 65.8481 66.7992 65.9027 67.4047 66.3803L72.0276 70.0266C72.0276 70.0266 82.3689 59.6021 93.0171 55.5276C84.4781 60.6167 73.4938 76.1895 72.4809 77.641C72.4384 77.7019 72.3579 77.6953 72.3092 77.6393L64.8484 69.0625Z" fill="#FFF7DD"/>
<g opacity="0.149693">
<path fill-rule="evenodd" clip-rule="evenodd" d="M56.3334 52.2053L82.7803 52.2053L56.3334 85.5387V52.2053Z" fill="url(#paint1_linear_277_3726)" style="mix-blend-mode:overlay"/>
</g>
</g>
<defs>
<filter id="filter0_d_277_3726" x="52.3334" y="50.2053" width="41.3334" height="41.3333" filterUnits="userSpaceOnUse" color-interpolation-filters="sRGB">
<feFlood flood-opacity="0" result="BackgroundImageFix"/>
<feColorMatrix in="SourceAlpha" type="matrix" values="0 0 0 0 0 0 0 0 0 0 0 0 0 0 0 0 0 0 127 0" result="hardAlpha"/>
<feOffset dy="2"/>
<feGaussianBlur stdDeviation="2"/>
<feColorMatrix type="matrix" values="0 0 0 0 0.984314 0 0 0 0 0.694118 0 0 0 0 0.415686 0 0 0 0.578691 0"/>
<feBlend mode="normal" in2="BackgroundImageFix" result="effect1_dropShadow_277_3726"/>
<feBlend mode="normal" in="SourceGraphic" in2="effect1_dropShadow_277_3726" result="shape"/>
</filter>
<linearGradient id="paint0_linear_277_3726" x1="74.0446" y1="92.5286" x2="97.0066" y2="68.7412" gradientUnits="userSpaceOnUse">
<stop stop-color="#FF9328"/>
<stop offset="0.500616" stop-color="#FF9532"/>
<stop offset="1" stop-color="#FFA974"/>
</linearGradient>
<linearGradient id="paint1_linear_277_3726" x1="67.0098" y1="57.5509" x2="56.5003" y2="69.5183" gradientUnits="userSpaceOnUse">
<stop stop-color="white"/>
<stop offset="1" stop-color="white" stop-opacity="0.01"/>
</linearGradient>
<clipPath id="clip0_277_3726">
<rect width="146" height="136" fill="white" transform="translate(0 0.87207)"/>
</clipPath>
</defs>
</svg>
