<svg width="25" height="24" viewBox="0 0 25 24" fill="none" xmlns="http://www.w3.org/2000/svg">
<path fill-rule="evenodd" clip-rule="evenodd" d="M20.3953 11.572C20.3133 9.99792 19.7658 8.4836 18.8223 7.221C18.5348 7.53063 18.2274 7.82124 17.9022 8.091C16.9032 8.92085 15.7867 9.59819 14.5892 10.101C14.7562 10.451 14.9092 10.79 15.0442 11.11V11.113C15.0823 11.2024 15.119 11.2924 15.1542 11.383C16.6682 11.213 18.2642 11.275 19.8112 11.484C20.0172 11.512 20.2113 11.542 20.3953 11.572ZM11.0103 4.122C11.9848 5.49517 12.8835 6.92064 13.7022 8.392C14.9252 7.91 15.9362 7.302 16.7502 6.625C17.0328 6.39213 17.2988 6.13985 17.5462 5.87C16.1072 4.65972 14.2866 3.99733 12.4062 4C11.9383 3.99968 11.4712 4.04017 11.0103 4.121V4.122ZM4.65925 9.997C5.34048 9.97981 6.02089 9.93878 6.69925 9.874C8.33889 9.72734 9.96453 9.4525 11.5612 9.052C10.7268 7.60221 9.8258 6.19171 8.86125 4.825C6.77657 5.85774 5.24324 7.74503 4.65925 9.997ZM6.18925 17.035C6.57725 16.468 7.08725 15.83 7.76425 15.136C9.21825 13.646 10.9342 12.486 12.9202 11.846L12.9823 11.828C12.8173 11.464 12.6622 11.139 12.5062 10.833C10.6702 11.368 8.73625 11.702 6.80925 11.875C5.86925 11.96 5.02625 11.997 4.40625 12.003C4.40448 13.8356 5.03454 15.6128 6.19025 17.035H6.18925ZM15.4112 19.415C15.0256 17.4703 14.4798 15.5607 13.7792 13.706C11.7772 14.433 10.1823 15.496 8.94925 16.764C8.45165 17.2664 8.01007 17.8213 7.63225 18.419C9.01106 19.4478 10.6859 20.0025 12.4062 20C13.4362 20.0015 14.4566 19.8035 15.4112 19.417V19.415ZM17.2842 18.34C18.8455 17.1398 19.9091 15.4057 20.2712 13.47C19.9312 13.385 19.5002 13.3 19.0262 13.234C17.9724 13.0822 16.903 13.0711 15.8462 13.201C16.4413 14.8798 16.9217 16.5971 17.2842 18.341V18.34ZM12.4062 22C6.88325 22 2.40625 17.523 2.40625 12C2.40625 6.477 6.88325 2 12.4062 2C17.9292 2 22.4062 6.477 22.4062 12C22.4062 17.523 17.9292 22 12.4062 22Z" fill="#EA4C89"/>
</svg>
