<svg width="25" height="24" viewBox="0 0 25 24" fill="none" xmlns="http://www.w3.org/2000/svg">
<g clip-path="url(#clip0_204_2170)">
<path fill-rule="evenodd" clip-rule="evenodd" d="M19.5151 6.5122C16.9297 6.5122 14.9785 8.21951 14.198 10.9024C12.9785 9 12.0029 6.85366 11.4663 5H8.73457V12.1707C8.73457 13.5854 7.56383 14.7561 6.1492 14.7561C4.73457 14.7561 3.56383 13.5854 3.56383 12.1707V5.04878H0.929688V12.2195C0.929688 15.1951 3.31993 17.5854 6.24676 17.5854C9.17359 17.5854 11.5638 15.1951 11.5638 12.2195V11C12.1004 12.0732 12.7833 13.2439 13.5151 14.2683L11.8077 22.2195H14.5882L15.759 16.4146C16.8321 17.0976 18.0516 17.4878 19.5151 17.4878C22.4907 17.4878 24.9297 15.0488 24.9297 11.9268C24.9297 8.95122 22.4907 6.5122 19.5151 6.5122ZM19.5151 14.7561C18.4419 14.7561 17.3199 14.2683 16.4419 13.5366L16.7346 12.4634V12.4146C16.9297 11.2439 17.5638 9.29268 19.5638 9.29268C21.076 9.29268 22.2955 10.5122 22.2955 12.0244C22.2468 13.5366 20.9297 14.7561 19.5151 14.7561Z" fill="#6BD342"/>
</g>
<defs>
<clipPath id="clip0_204_2170">
<rect width="24" height="24" fill="white" transform="translate(0.929688)"/>
</clipPath>
</defs>
</svg>
