<svg width="25" height="25" viewBox="0 0 25 25" fill="none" xmlns="http://www.w3.org/2000/svg">
<g clip-path="url(#clip0_204_2189)">
<path fill-rule="evenodd" clip-rule="evenodd" d="M12.8615 23.9681C12.8615 23.9681 12.8615 23.9681 12.8615 23.9681C13.1415 23.956 13.4189 23.9341 13.6934 23.9025C13.6935 23.9025 13.6934 23.9026 13.6934 23.9025C18.8205 23.3132 22.9329 19.3881 23.8054 14.3526C23.8058 14.3524 23.8062 14.3523 23.8066 14.3522C23.8527 14.0864 23.8897 13.8175 23.9174 13.5459C23.917 13.546 23.9166 13.5461 23.9162 13.5462C23.9561 13.1542 23.9766 12.7565 23.9766 12.354C23.9766 6.38754 19.4817 1.47091 13.6935 0.805615C13.6935 0.805571 13.6935 0.80566 13.6935 0.805615C13.419 0.774092 13.1415 0.751998 12.8615 0.739941C12.8615 0.739956 12.8615 0.739926 12.8615 0.739941C12.6924 0.732642 12.5224 0.729 12.3516 0.729C5.93125 0.729 0.726562 5.93369 0.726562 12.354C0.726562 18.7743 5.93125 23.979 12.3516 23.979C12.5224 23.979 12.6924 23.9754 12.8615 23.9681ZM13.1572 23.1996C12.8912 23.2191 12.6225 23.229 12.3516 23.229C7.09988 23.229 2.71765 19.5064 1.69962 14.556C5.11363 15.3904 8.68138 15.8329 12.3525 15.8329C13.2091 15.8329 14.0601 15.8088 14.9049 15.7612C14.6246 18.3484 14.029 20.8409 13.1572 23.1996ZM13.1572 1.50839C12.8912 1.48891 12.6225 1.479 12.3516 1.479C6.34547 1.479 1.47656 6.3479 1.47656 12.354C1.47656 12.8269 1.50675 13.2927 1.56529 13.7497C5.01677 14.6204 8.6306 15.0829 12.3525 15.0829C13.2338 15.0829 14.109 15.0569 14.9775 15.0058C15.0508 14.1316 15.0883 13.2472 15.0883 12.354C15.0883 8.54103 14.4061 4.88735 13.1572 1.50839ZM13.989 1.60147C15.1863 4.96237 15.8383 8.58207 15.8383 12.354C15.8383 13.2296 15.8031 14.0969 15.7342 14.9547C18.2682 14.762 20.7421 14.3544 23.1378 13.7502C23.1964 13.293 23.2266 12.8271 23.2266 12.354C23.2266 6.90448 19.2182 2.39116 13.989 1.60147ZM23.0034 14.5565C20.6259 15.1375 18.1739 15.5283 15.6644 15.7121C15.397 18.2792 14.8264 20.7561 13.9891 23.1065C18.4942 22.4262 22.0931 18.982 23.0034 14.5565Z" fill="#183443"/>
</g>
<defs>
<clipPath id="clip0_204_2189">
<rect width="24" height="24" fill="white" transform="translate(0.351562 0.354)"/>
</clipPath>
</defs>
</svg>
