<svg width="25" height="25" viewBox="0 0 25 25" fill="none" xmlns="http://www.w3.org/2000/svg">
<g clip-path="url(#clip0_204_2165)">
<path fill-rule="evenodd" clip-rule="evenodd" d="M19.5151 7.15807C16.9297 7.15807 14.9785 8.86539 14.198 11.5483C12.9785 9.64587 12.0029 7.49953 11.4663 5.64587H8.73457V12.8166C8.73457 14.2312 7.56383 15.402 6.1492 15.402C4.73457 15.402 3.56383 14.2312 3.56383 12.8166V5.69465H0.929688V12.8654C0.929688 15.841 3.31993 18.2312 6.24676 18.2312C9.17359 18.2312 11.5638 15.841 11.5638 12.8654V11.6459C12.1004 12.719 12.7833 13.8898 13.5151 14.9142L11.8077 22.8654H14.5882L15.759 17.0605C16.8321 17.7434 18.0516 18.1337 19.5151 18.1337C22.4907 18.1337 24.9297 15.6947 24.9297 12.5727C24.9297 9.59709 22.4907 7.15807 19.5151 7.15807ZM19.5151 15.402C18.4419 15.402 17.3199 14.9142 16.4419 14.1825L16.7346 13.1093V13.0605C16.9297 11.8898 17.5638 9.93856 19.5638 9.93856C21.076 9.93856 22.2955 11.1581 22.2955 12.6703C22.2468 14.1825 20.9297 15.402 19.5151 15.402Z" fill="#183443"/>
</g>
<defs>
<clipPath id="clip0_204_2165">
<rect width="24" height="24" fill="white" transform="translate(0.929688 0.645874)"/>
</clipPath>
</defs>
</svg>
