<svg width="201" height="40" viewBox="0 0 201 40" fill="none" xmlns="http://www.w3.org/2000/svg">
<path d="M138.755 5.80922C138.083 6.48089 137.289 6.81672 136.373 6.81672C135.429 6.81672 134.621 6.48089 133.948 5.80922C133.276 5.13755 132.94 4.34441 132.94 3.4298C132.94 2.51518 133.276 1.7149 133.948 1.02894C134.621 0.34298 135.429 0 136.373 0C137.289 0 138.083 0.34298 138.755 1.02894C139.428 1.7149 139.764 2.51518 139.764 3.4298C139.764 4.34441 139.428 5.13755 138.755 5.80922Z" fill="#183443"/>
<path fill-rule="evenodd" clip-rule="evenodd" d="M44.4823 14.7053V30.8253H38.9457V14.7053H35.8555V9.38907H38.9457V9.17471C38.9457 6.14505 39.7898 3.84423 41.4779 2.27224C43.1661 0.70025 45.684 0.0142908 49.0318 0.214362V5.53055C45.9988 5.30189 44.4823 6.51661 44.4823 9.17471V9.38907H49.0318V13.6814C49.398 13.1169 49.8201 12.5793 50.2979 12.0686C52.3437 9.8821 54.7973 8.78885 57.6586 8.78885C60.663 8.78885 62.9949 9.83208 64.6545 11.9185V9.38907L74.6977 9.38907V5.05895L80.2343 3.38692V9.38907H85.0842V14.7053H80.2343V23.6227C80.2343 24.3658 80.4203 24.9089 80.7923 25.2519C81.1642 25.5949 81.7079 25.7878 82.4232 25.8307C83.1385 25.8735 84.0255 25.8664 85.0842 25.8092V30.8253C81.2787 31.254 78.5962 30.8967 77.0368 29.7535C75.4774 28.6102 74.6977 26.5666 74.6977 23.6227V14.7053H70.1911V30.8253H64.6545V28.2958C62.9949 30.3823 60.663 31.4255 57.6586 31.4255C54.7973 31.4255 52.3437 30.3323 50.2979 28.1458C48.2521 25.9593 47.2292 23.2797 47.2292 20.1072C47.2292 18.1114 47.6339 16.3108 48.4435 14.7053H44.4823ZM58.6887 26.1522C56.9719 26.1522 55.5556 25.5949 54.4396 24.4802C53.3237 23.3369 52.7658 21.8792 52.7658 20.1072C52.7658 18.3351 53.3237 16.8846 54.4396 15.7556C55.5556 14.6267 56.9719 14.0622 58.6887 14.0622C60.4055 14.0622 61.829 14.6267 62.9592 15.7556C64.0894 16.8846 64.6545 18.3351 64.6545 20.1072C64.6545 21.8792 64.0894 23.3298 62.9592 24.4587C61.829 25.5877 60.4055 26.1522 58.6887 26.1522Z" fill="#183443"/>
<path fill-rule="evenodd" clip-rule="evenodd" d="M96.1575 31.4255C99.3335 31.4255 102.023 30.3394 104.226 28.1672C106.43 25.9664 107.531 23.2797 107.531 20.1072C107.531 16.9346 106.43 14.2551 104.226 12.0686C102.023 9.8821 99.3335 8.78885 96.1575 8.78885C92.9814 8.78885 90.2989 9.8821 88.11 12.0686C85.9211 14.2551 84.8267 16.9346 84.8267 20.1072C84.8267 23.2797 85.9211 25.9593 88.11 28.1458C90.2989 30.3323 92.9814 31.4255 96.1575 31.4255ZM96.1575 26.0236C94.4979 26.0236 93.1102 25.4662 91.9943 24.3516C90.907 23.2369 90.3633 21.8221 90.3633 20.1072C90.3633 18.3923 90.9141 16.9775 92.0157 15.8628C93.1173 14.7481 94.4979 14.1908 96.1575 14.1908C97.817 14.1908 99.2048 14.7481 100.321 15.8628C101.437 16.9775 101.995 18.3923 101.995 20.1072C101.995 21.8221 101.437 23.2369 100.321 24.3516C99.2048 25.4662 97.817 26.0236 96.1575 26.0236Z" fill="#183443"/>
<path fill-rule="evenodd" clip-rule="evenodd" d="M128.927 28.1458C126.881 30.3323 124.413 31.4255 121.523 31.4255C118.519 31.4255 116.201 30.3823 114.57 28.2958V30.8253H109.033V0.814577H114.57V11.9185C116.201 9.83208 118.519 8.78885 121.523 8.78885C124.413 8.78885 126.881 9.8821 128.927 12.0686C130.972 14.2551 131.995 16.9346 131.995 20.1072C131.995 23.2797 130.972 25.9593 128.927 28.1458ZM116.244 24.4802C117.36 25.5949 118.776 26.1522 120.493 26.1522C122.21 26.1522 123.633 25.5877 124.763 24.4587C125.894 23.3298 126.459 21.8792 126.459 20.1072C126.459 18.3351 125.894 16.8846 124.763 15.7556C123.633 14.6267 122.21 14.0622 120.493 14.0622C118.776 14.0622 117.36 14.6267 116.244 15.7556C115.128 16.8846 114.57 18.3351 114.57 20.1072C114.57 21.8792 115.128 23.3369 116.244 24.4802Z" fill="#183443"/>
<path d="M127.629 40H139.12V9.38907H133.583V35.2753H127.629V40Z" fill="#183443"/>
<path fill-rule="evenodd" clip-rule="evenodd" d="M152.425 31.4255C156.545 31.4255 159.664 29.8964 161.781 26.8382L157.318 24.2658C156.231 25.6949 154.628 26.4094 152.511 26.4094C149.22 26.4094 147.203 25.0661 146.459 22.3794H162.64C162.783 21.5791 162.854 20.8217 162.854 20.1072C162.854 16.906 161.832 14.2194 159.786 12.0472C157.74 9.87496 155.143 8.78885 151.996 8.78885C148.677 8.78885 145.958 9.86781 143.841 12.0257C141.724 14.1836 140.665 16.8775 140.665 20.1072C140.665 23.3655 141.738 26.0665 143.884 28.2101C146.03 30.3537 148.877 31.4255 152.425 31.4255ZM157.318 18.0922H146.373C146.688 16.7203 147.332 15.6556 148.305 14.8982C149.278 14.1408 150.508 13.7621 151.996 13.7621C153.255 13.7621 154.378 14.1193 155.365 14.8339C156.352 15.5484 157.003 16.6345 157.318 18.0922Z" fill="#183443"/>
<path d="M175.282 31.4255C177.371 31.4255 179.273 30.9182 180.99 29.9035C182.707 28.8889 184.037 27.5384 184.982 25.8521L180.175 23.1083C179.745 23.9943 179.094 24.6874 178.222 25.1876C177.349 25.6877 176.355 25.9378 175.239 25.9378C173.579 25.9378 172.206 25.3876 171.119 24.2872C170.031 23.1869 169.488 21.7935 169.488 20.1072C169.488 18.3923 170.031 16.9846 171.119 15.8842C172.206 14.7839 173.579 14.2337 175.239 14.2337C176.326 14.2337 177.306 14.4909 178.179 15.0054C179.052 15.5198 179.702 16.2201 180.132 17.1061L184.896 14.3194C184.009 12.6331 182.707 11.2897 180.99 10.2894C179.273 9.28903 177.371 8.78885 175.282 8.78885C172.049 8.78885 169.352 9.87496 167.191 12.0472C165.031 14.2194 163.951 16.906 163.951 20.1072C163.951 23.3083 165.031 25.995 167.191 28.1672C169.352 30.3394 172.049 31.4255 175.282 31.4255Z" fill="#183443"/>
<path d="M200.48 30.8253H189.235V14.7053H185.501V9.38907H189.235V5.05895L194.771 3.38692V9.38907H199.621V14.7053H194.771V25.8092H200.48V30.8253Z" fill="#183443"/>
<path d="M1.17188 0.693665H31.6921V31.2139H1.17188V0.693665Z" fill="#183443"/>
<path fill-rule="evenodd" clip-rule="evenodd" d="M16.9764 5.79405C14.9133 5.6949 13.3555 6.13589 12.303 7.11702L12.2232 7.19323C11.1989 8.19532 10.6867 9.64013 10.6867 11.5277L10.6865 11.6421L7.18359 11.6422V15.1615L10.7027 15.1613L10.7028 18.6807H14.2221L14.2219 15.1613L17.6854 15.1615V11.6422L14.2219 11.6422L14.222 11.4233C14.2612 9.7974 15.2288 9.05598 17.1246 9.19906V5.80205L16.9764 5.79405ZM24.6122 18.5131C24.6122 15.2765 22.3742 12.5626 19.3614 11.8343L19.3613 15.5898C20.3945 16.168 21.0929 17.273 21.0929 18.5411C21.0929 20.4075 19.5798 21.9206 17.7134 21.9206H17.6016L17.513 21.9195C16.3515 21.8896 15.3358 21.2737 14.7506 20.3565L10.9529 20.3563C11.7584 23.2559 14.4175 25.384 17.5737 25.384H17.7413C21.536 25.384 24.6122 22.3078 24.6122 18.5131Z" fill="#45FF51"/>
</svg>
